HIERARCHY
ROOT Hips
{
  OFFSET 73.9991 93.5207 56.7068
  CHANNELS 6 Xposition Yposition Zposition Zrotation Xrotation Yrotation
  JOINT spine
  {
    OFFSET 0 6.84637 0.3937
    CHANNELS 3 Zrotation Xrotation Yrotation
    JOINT spine1
    {
      OFFSET 0 9.49621 0
      CHANNELS 3 Zrotation Xrotation Yrotation
      JOINT spine2
      {
        OFFSET 0 9.09909 0
        CHANNELS 3 Zrotation Xrotation Yrotation
        JOINT Neck
        {
          OFFSET 0 23.3612 1.11378
          CHANNELS 3 Zrotation Xrotation Yrotation
          JOINT Head
          {
            OFFSET 0 7.05802 0
            CHANNELS 3 Zrotation Xrotation Yrotation
            End Site
            {
              OFFSET 0 17.0844 -5.63419
            }
          }
        }
        JOINT RightShoulder
        {
          OFFSET -3.83136 9.82631 -0.533491
          CHANNELS 3 Zrotation Xrotation Yrotation
          JOINT RightArm
          {
            OFFSET 0 12.8881 0
            CHANNELS 3 Zrotation Xrotation Yrotation
            JOINT RightArmRoll
            {
              OFFSET 0 6.50617 0
              CHANNELS 3 Zrotation Xrotation Yrotation
              JOINT RightForeArm
              {
                OFFSET 0 18.9501 0
                CHANNELS 3 Zrotation Xrotation Yrotation
                JOINT RightForeArmRoll
                {
                  OFFSET 0 7.30092 0
                  CHANNELS 3 Zrotation Xrotation Yrotation
                  JOINT RightHand
                  {
                    OFFSET 0 14.6514 0
                    CHANNELS 3 Zrotation Xrotation Yrotation
                    End Site
                    {
                      OFFSET 0 0 0
                    }
                  }
                }
              }
            }
          }
        }
        JOINT LeftShoulder
        {
          OFFSET 3.83136 9.82631 -0.533491
          CHANNELS 3 Zrotation Xrotation Yrotation
          JOINT LeftArm
          {
            OFFSET 0 12.8881 0
            CHANNELS 3 Zrotation Xrotation Yrotation
            JOINT LeftArmRoll
            {
              OFFSET 0 6.50617 0
              CHANNELS 3 Zrotation Xrotation Yrotation
              JOINT LeftForeArm
              {
                OFFSET 0 18.9501 0
                CHANNELS 3 Zrotation Xrotation Yrotation
                JOINT LeftForeArmRoll
                {
                  OFFSET 0 7.30093 0
                  CHANNELS 3 Zrotation Xrotation Yrotation
                  JOINT LeftHand
                  {
                    OFFSET 0 14.6514 0
                    CHANNELS 3 Zrotation Xrotation Yrotation
                    End Site
                    {
                      OFFSET 0 0 0
                    }
                  }
                }
              }
            }
          }
        }
      }
    }
  }
  JOINT RightUpLeg
  {
    OFFSET -6.06837 -1.11278 -0.933477
    CHANNELS 3 Zrotation Xrotation Yrotation
    JOINT RightUpLegRoll
    {
      OFFSET 0 17.1796 0
      CHANNELS 3 Zrotation Xrotation Yrotation
      JOINT RightLeg
      {
        OFFSET 0 -21.2743 0
        CHANNELS 3 Zrotation Xrotation Yrotation
        JOINT RightLegRoll
        {
          OFFSET 0 21.3439 0
          CHANNELS 3 Zrotation Xrotation Yrotation
          JOINT RightFoot
          {
            OFFSET 0 17.7652 0
            CHANNELS 3 Zrotation Xrotation Yrotation
            JOINT RightToeBase
            {
              OFFSET 0 14.8508 0
              CHANNELS 3 Zrotation Xrotation Yrotation
              End Site
              {
                OFFSET 0.0062947 7.19214 -0.829005
              }
            }
          }
        }
      }
    }
  }
  JOINT LeftUpLeg
  {
    OFFSET 6.06837 -1.11278 -0.933477
    CHANNELS 3 Zrotation Xrotation Yrotation
    JOINT LeftUpLegRoll
    {
      OFFSET 0 17.1797 0
      CHANNELS 3 Zrotation Xrotation Yrotation
      JOINT LeftLeg
      {
        OFFSET 0 21.2742 0
        CHANNELS 3 Zrotation Xrotation Yrotation
        JOINT LeftLegRoll
        {
          OFFSET 0 21.5412 0
          CHANNELS 3 Zrotation Xrotation Yrotation
          JOINT LeftFoot
          {
            OFFSET 0 17.5679 0
            CHANNELS 3 Zrotation Xrotation Yrotation
            JOINT LeftToeBase
            {
              OFFSET 0 14.8508 0
              CHANNELS 3 Zrotation Xrotation Yrotation
              End Site
              {
                OFFSET -0.0282102 7.19214 -0.829004
              }
            }
          }
        }
      }
    }
  }
}
MOTION
Frames: 13
Frame Time: 0.00208333
54.5819 91.3661 14.88 0.837427 -1.29637 -0.710769 0.228759 -1.84507 -0.0744579 0.443504 0.321593 -0.188814 0.445822 1.96663 -0.196195 -8.66399 29.7059 3.4349 4.64036 -12.7114 0.566377 68.4816 6.00356 1.9195 99.6124 2.11184 18.7178 -8.22185e-007 1.13276e-006 -1.95644e-006 8.09056 10.9173 -1.90697 -7.2184e-006 2.55257e-006 -3 8.02912 -4.95144 0.697666 -69.8572 0.966679 0.792116 -96.0214 8.66416 -30.1734 -1.94648e-006 -4.12548e-006 1.36552e-006 -6.17015 0.0569502 0.280737 6.53004e-006 1.91437e-006 3.02209 -8.02939 -4.95142 -0.697645 175.111 0.370286 1.8165 180 7.01546e-015 178.918 177.406 5.31483 179.96 1.58815e-006 4.10178e-006 0.0417131 -18.3181 67.533 19.1673 8.12753 25.2332 -3.48392 -176.757 -2.31394 0.992896 4.54188e-006 -4.6773e-006 -1.09129 -1.34324 -4.06031 0.056886 -3.25974e-006 3.15341e-006 -0.0295254 18.7525 68.0876 -19.6079 -8.12581 25.2332 3.48318 
54.5774 91.3083 14.8701 0.836312 -1.29501 -0.714062 0.229463 -1.84254 -0.0744484 0.445417 0.325357 -0.188974 0.44775 1.97039 -0.196394 -8.70998 29.7103 3.45696 4.6823 -12.7347 0.577349 68.4659 6.01138 1.9262 99.6192 2.08768 18.7389 -8.22185e-007 1.13276e-006 -1.95644e-006 8.07741 10.9266 -1.90701 -7.2184e-006 2.55257e-006 -3 8.02912 -4.95144 0.697666 -69.8568 0.947681 0.801448 -96.0169 8.68016 -30.1423 -1.94648e-006 -4.12548e-006 1.36552e-006 -6.19449 0.0569475 0.282524 6.53004e-006 1.91437e-006 3.02209 -8.02939 -4.95142 -0.697645 175.11 0.375077 1.81609 180 7.01546e-015 178.918 177.408 5.31407 179.959 1.58815e-006 4.10178e-006 0.0417131 -18.3182 67.5331 19.1676 8.12753 25.2332 -3.48392 -176.755 -2.31488 0.978905 4.54188e-006 -4.6773e-006 -1.09129 -1.3615 -4.06858 0.056654 -3.25974e-006 3.15341e-006 -0.0295254 18.7503 68.085 -19.6066 -8.12581 25.2332 3.48318 
54.5828 91.3085 14.8679 0.835178 -1.29356 -0.717438 0.230173 -1.83999 -0.0744401 0.447351 0.32909 -0.18918 0.4497 1.97412 -0.19664 -8.75724 29.7132 3.47967 4.72532 -12.7564 0.588675 68.4502 6.01877 1.93269 99.6256 2.06353 18.7598 -8.22185e-007 1.13276e-006 -1.95644e-006 8.06443 10.9356 -1.90703 -7.2184e-006 2.55257e-006 -3 8.02912 -4.95144 0.697666 -69.8559 0.926879 0.811617 -96.0125 8.69713 -30.1104 -1.94648e-006 -4.12548e-006 1.36552e-006 -6.21927 0.0569448 0.284416 6.53004e-006 1.91437e-006 3.02209 -8.02939 -4.95142 -0.697645 175.109 0.379873 1.81546 180 7.01546e-015 178.918 177.409 5.31323 179.959 1.58815e-006 4.10178e-006 0.0417131 -18.3184 67.5333 19.168 8.12753 25.2332 -3.48392 -176.753 -2.31629 0.964164 4.54188e-006 -4.6773e-006 -1.09129 -1.38074 -4.07722 0.0564128 -3.25974e-006 3.15341e-006 -0.0295254 18.7481 68.0823 -19.6052 -8.12581 25.2332 3.48318 
54.5878 91.3019 14.8702 0.834028 -1.29204 -0.720871 0.230887 -1.83743 -0.0744326 0.449301 0.332802 -0.189418 0.451667 1.97784 -0.196919 -8.80539 29.7151 3.50284 4.76912 -12.777 0.600248 68.4345 6.02585 1.93902 99.6317 2.0394 18.7807 -8.22185e-007 1.13276e-006 -1.95644e-006 8.05156 10.9443 -1.90703 -7.2184e-006 2.55257e-006 -3 8.02912 -4.95144 0.697666 -69.8547 0.904813 0.822371 -96.008 8.71479 -30.0779 -1.94648e-006 -4.12548e-006 1.36552e-006 -6.24436 0.0569421 0.286383 6.53004e-006 1.91437e-006 3.02209 -8.02939 -4.95142 -0.697645 175.109 0.384674 1.81467 180 7.01546e-015 178.918 177.411 5.31238 179.959 1.58815e-006 4.10178e-006 0.0417131 -18.3185 67.5334 19.1684 8.12753 25.2332 -3.48392 -176.751 -2.31802 0.948896 4.54188e-006 -4.6773e-006 -1.09129 -1.40067 -4.08612 0.0561651 -3.25974e-006 3.15341e-006 -0.0295254 18.7457 68.0796 -19.6038 -8.12581 25.2332 3.48318 
54.5875 91.3127 14.8655 0.832871 -1.29048 -0.724338 0.231603 -1.83486 -0.0744256 0.45126 0.336501 -0.189675 0.453642 1.98154 -0.197217 -8.85404 29.7164 3.52627 4.81336 -12.797 0.611962 68.4187 6.03275 1.94526 99.6378 2.01528 18.8015 -8.22185e-007 1.13276e-006 -1.95644e-006 8.03876 10.9529 -1.90702 -7.2184e-006 2.55257e-006 -3 8.02912 -4.95144 0.697666 -69.8533 0.882026 0.833459 -96.0035 8.73284 -30.0451 -1.94648e-006 -4.12548e-006 1.36552e-006 -6.26962 0.0569393 0.288392 6.53004e-006 1.91437e-006 3.02209 -8.02939 -4.95142 -0.697645 175.108 0.389477 1.81379 180 7.01546e-015 178.918 177.412 5.31148 179.958 1.58815e-006 4.10178e-006 0.0417131 -18.3186 67.5336 19.1688 8.12753 25.2332 -3.48392 -176.749 -2.31995 0.933328 4.54188e-006 -4.6773e-006 -1.09129 -1.42098 -4.09517 0.0559137 -3.25974e-006 3.15341e-006 -0.0295254 18.7434 68.0767 -19.6023 -8.12581 25.2332 3.48318 
54.5873 91.3043 14.8643 0.831712 -1.28891 -0.727813 0.23232 -1.83229 -0.0744187 0.453221 0.340197 -0.189937 0.45562 1.98523 -0.19752 -8.90283 29.7175 3.54977 4.85771 -12.8168 0.623714 68.403 6.03961 1.95147 99.6437 1.99117 18.8222 -8.22185e-007 1.13276e-006 -1.95644e-006 8.02597 10.9615 -1.90701 -7.2184e-006 2.55257e-006 -3 8.02912 -4.95144 0.697666 -69.8519 0.859059 0.844631 -95.999 8.751 -30.0122 -1.94648e-006 -4.12548e-006 1.36552e-006 -6.29493 0.0569365 0.290411 6.53004e-006 1.91437e-006 3.02209 -8.02939 -4.95142 -0.697645 175.107 0.394281 1.81289 180 7.01546e-015 178.918 177.414 5.31059 179.958 1.58815e-006 4.10178e-006 0.0417131 -18.3188 67.5338 19.1692 8.12753 25.2332 -3.48392 -176.747 -2.32192 0.917686 4.54188e-006 -4.6773e-006 -1.09129 -1.4414 -4.10426 0.0556614 -3.25974e-006 3.15341e-006 -0.0295254 18.741 68.0739 -19.6009 -8.12581 25.2332 3.48318 
54.5916 91.3109 14.8617 0.830557 -1.28737 -0.731272 0.233036 -1.82972 -0.0744116 0.455177 0.3439 -0.190189 0.457594 1.98894 -0.197813 -8.95136 29.7189 3.57314 4.90186 -12.8369 0.635398 68.3872 6.04656 1.95774 99.6498 1.96707 18.8431 -8.22185e-007 1.13276e-006 -1.95644e-006 8.01315 10.9701 -1.907 -7.2184e-006 2.55257e-006 -3 8.02912 -4.95144 0.697666 -69.8506 0.836452 0.855636 -95.9946 8.76896 -29.9795 -1.94648e-006 -4.12548e-006 1.36552e-006 -6.32015 0.0569337 0.29241 6.53004e-006 1.91437e-006 3.02209 -8.02939 -4.95142 -0.697645 175.107 0.399084 1.81204 180 7.01546e-015 178.918 177.416 5.30972 179.957 1.58815e-006 4.10178e-006 0.0417131 -18.3189 67.534 19.1695 8.12753 25.2332 -3.48392 -176.745 -2.3238 0.902193 4.54188e-006 -4.6773e-006 -1.09129 -1.46161 -4.11327 0.0554109 -3.25974e-006 3.15341e-006 -0.0295254 18.7386 68.0711 -19.5994 -8.12581 25.2332 3.48318 
54.5953 91.3071 14.8483 0.829412 -1.28587 -0.734689 0.233749 -1.82716 -0.0744039 0.457123 0.347618 -0.190419 0.459556 1.99265 -0.198083 -8.99927 29.7211 3.59619 4.94547 -12.8578 0.646909 68.3715 6.05373 1.96411 99.6561 1.94296 18.864 -8.22185e-007 1.13276e-006 -1.95644e-006 8.00025 10.9789 -1.90701 -7.2184e-006 2.55257e-006 -3 8.02912 -4.95144 0.697666 -69.8495 0.814748 0.866223 -95.9902 8.78645 -29.9472 -1.94648e-006 -4.12548e-006 1.36552e-006 -6.34515 0.056931 0.294355 6.53004e-006 1.91437e-006 3.02209 -8.02939 -4.95142 -0.697645 175.106 0.403883 1.8113 180 7.01546e-015 178.918 177.417 5.30885 179.957 1.58815e-006 4.10178e-006 0.0417131 -18.319 67.5341 19.1699 8.12753 25.2332 -3.48392 -176.743 -2.32544 0.887075 4.54188e-006 -4.6773e-006 -1.09129 -1.48134 -4.1221 0.055165 -3.25974e-006 3.15341e-006 -0.0295254 18.7363 68.0684 -19.598 -8.12581 25.2332 3.48318 
54.5956 91.3167 14.848 0.828285 -1.28444 -0.738039 0.234457 -1.82462 -0.0743952 0.459051 0.35136 -0.19061 0.4615 1.9964 -0.198315 -9.04616 29.7244 3.61871 4.98822 -12.88 0.658141 68.3558 6.06124 1.97066 99.6627 1.91884 18.885 -8.22185e-007 1.13276e-006 -1.95644e-006 7.98722 10.988 -1.90703 -7.2184e-006 2.55257e-006 -3 8.02912 -4.95144 0.697666 -69.8486 0.794488 0.87614 -95.9859 8.80318 -29.9155 -1.94648e-006 -4.12548e-006 1.36552e-006 -6.36979 0.0569283 0.296216 6.53004e-006 1.91437e-006 3.02209 -8.02939 -4.95142 -0.697645 175.105 0.408678 1.81073 180 7.01546e-015 178.918 177.418 5.30806 179.956 1.58815e-006 4.10178e-006 0.0417131 -18.3191 67.5343 19.1702 8.12753 25.2332 -3.48392 -176.741 -2.32671 0.872559 4.54188e-006 -4.6773e-006 -1.09129 -1.50029 -4.13063 0.0549265 -3.25974e-006 3.15341e-006 -0.0295254 18.7341 68.0657 -19.5966 -8.12581 25.2332 3.48318 
54.5988 91.314 14.842 0.82718 -1.28312 -0.741299 0.235159 -1.82209 -0.0743853 0.460955 0.355136 -0.190751 0.463419 2.00017 -0.198495 -9.09167 29.7294 3.64051 5.0298 -12.904 0.66899 68.34 6.06923 1.97746 99.6698 1.89472 18.9062 -8.22185e-007 1.13276e-006 -1.95644e-006 7.974 10.9974 -1.90709 -7.2184e-006 2.55257e-006 -3 8.02912 -4.95144 0.697666 -69.8483 0.776212 0.885138 -95.9816 8.81884 -29.8847 -1.94648e-006 -4.12548e-006 1.36552e-006 -6.39395 0.0569256 0.297959 6.53004e-006 1.91437e-006 3.02209 -8.02939 -4.95142 -0.697645 175.104 0.413467 1.81042 180 7.01546e-015 178.918 177.419 5.30731 179.956 1.58815e-006 4.10178e-006 0.0417131 -18.3192 67.5344 19.1705 8.12753 25.2332 -3.48392 -176.739 -2.32745 0.858868 4.54188e-006 -4.6773e-006 -1.09129 -1.51816 -4.13874 0.0546982 -3.25974e-006 3.15341e-006 -0.0295254 18.732 68.0632 -19.5953 -8.12581 25.2332 3.48318 
54.6025 91.3182 14.8382 0.826105 -1.28192 -0.744443 0.235853 -1.81959 -0.0743736 0.462828 0.358955 -0.190826 0.465305 2.00399 -0.198608 -9.13541 29.7365 3.66141 5.06987 -12.9302 0.679352 68.3243 6.07784 1.98457 99.6774 1.87058 18.9276 -8.22185e-007 1.13276e-006 -1.95644e-006 7.96055 11.0072 -1.90718 -7.2184e-006 2.55257e-006 -3 8.02912 -4.95144 0.697666 -69.8485 0.760463 0.892966 -95.9774 8.83315 -29.855 -1.94648e-006 -4.12548e-006 1.36552e-006 -6.4175 0.056923 0.299554 6.53004e-006 1.91437e-006 3.02209 -8.02939 -4.95142 -0.697645 175.103 0.418247 1.81042 180 7.01546e-015 178.918 177.42 5.30665 179.956 1.58815e-006 4.10178e-006 0.0417131 -18.3193 67.5345 19.1708 8.12753 25.2332 -3.48392 -176.737 -2.32754 0.846229 4.54188e-006 -4.6773e-006 -1.09129 -1.53466 -4.14633 0.0544827 -3.25974e-006 3.15341e-006 -0.0295254 18.73 68.0609 -19.5941 -8.12581 25.2332 3.48318 
54.6014 91.3188 14.8344 0.825065 -1.28089 -0.747446 0.236537 -1.81712 -0.07436 0.464665 0.362827 -0.190823 0.467153 2.00786 -0.198642 -9.17702 29.746 3.6812 5.10811 -12.9591 0.689121 68.3086 6.08718 1.99207 99.6858 1.84642 18.9493 -8.22185e-007 1.13276e-006 -1.95644e-006 7.94682 11.0176 -1.90732 -7.2184e-006 2.55257e-006 -3 8.02912 -4.95144 0.697666 -69.8495 0.747782 0.899371 -95.9733 8.84582 -29.8267 -1.94648e-006 -4.12548e-006 1.36552e-006 -6.44029 0.0569205 0.300969 6.53004e-006 1.91437e-006 3.02209 -8.02939 -4.95142 -0.697645 175.102 0.423017 1.8108 180 7.01546e-015 178.918 177.42 5.30609 179.955 1.58815e-006 4.10178e-006 0.0417131 -18.3193 67.5345 19.1709 8.12753 25.2332 -3.48392 -176.735 -2.32683 0.834867 4.54188e-006 -4.6773e-006 -1.09129 -1.54949 -4.15328 0.0542829 -3.25974e-006 3.15341e-006 -0.0295254 18.7282 68.0587 -19.5929 -8.12581 25.2332 3.48318 
54.6022 91.3148 14.8295 0.824066 -1.28004 -0.750283 0.237211 -1.81468 -0.074344 0.466458 0.366759 -0.190726 0.468955 2.0118 -0.198581 -9.21611 29.7585 3.69969 5.14419 -12.9913 0.698193 68.2929 6.0974 2 99.6949 1.82224 18.9713 -8.22185e-007 1.13276e-006 -1.95644e-006 7.93276 11.0287 -1.90752 -7.2184e-006 2.55257e-006 -3 8.02912 -4.95144 0.697666 -69.8513 0.73871 0.904105 -95.9692 8.85655 -29.7999 -1.94648e-006 -4.12548e-006 1.36552e-006 -6.4622 0.0569181 0.302172 6.53004e-006 1.91437e-006 3.02209 -8.02939 -4.95142 -0.697645 175.1 0.427776 1.81163 180 7.01546e-015 178.918 177.42 5.30565 179.955 1.58815e-006 4.10178e-006 0.0417131 -18.3193 67.5345 19.171 8.12753 25.2332 -3.48392 -176.733 -2.32517 0.825006 4.54188e-006 -4.6773e-006 -1.09129 -1.56237 -4.15948 0.0541015 -3.25974e-006 3.15341e-006 -0.0295254 18.7266 68.0568 -19.5918 -8.12581 25.2332 3.48318 
